PathFileType	4	(X/Y/Z)	34_2_80_p0_0-606_filt_butterworth.trc
DataRate	CameraRate	NumFrames	NumMarkers	Units	OrigDataRate	OrigDataStartFrame	OrigNumFrames
59.0	59.0	6	27	m	59.0	75	606
Frame#	Time	RHip			RKnee			RAnkle			RBigToe			RSmallToe			RHeel			LHip			LKnee			LAnkle			LBigToe			LSmallToe			LHeel			Neck			Head			Nose			RShoulder			RElbow			RWrist			RThumb			RIndex			RPinky			LShoulder			LElbow			LWrist			LThumb			LIndex			LPinky			
		X1	Y1	Z1	X2	Y2	Z2	X3	Y3	Z3	X4	Y4	Z4	X5	Y5	Z5	X6	Y6	Z6	X7	Y7	Z7	X8	Y8	Z8	X9	Y9	Z9	X10	Y10	Z10	X11	Y11	Z11	X12	Y12	Z12	X13	Y13	Z13	X14	Y14	Z14	X15	Y15	Z15	X16	Y16	Z16	X17	Y17	Z17	X18	Y18	Z18	X19	Y19	Z19	X20	Y20	Z20	X21	Y21	Z21	X22	Y22	Z22	X23	Y23	Z23	X24	Y24	Z24	X25	Y25	Z25	X26	Y26	Z26	X27	Y27	Z27	
75	1.271186440677966	0.3619427330026021	0.4981006595321593	1.008719193263228	0.38138617437402794	0.5985533439870414	1.374812024745472	0.3736941233877632	0.689297089277375	1.7286649392254356	0.34241769400655475	0.5685727657642303	1.7820446692042065	0.41487716957308407	0.5841610197573495	1.7842284410525369	0.35001181279931526	0.7972664686036434	1.7959681269805992	0.17813855215422722	0.5312400324997275	1.0242656336675853	0.1867140030994706	0.640084028265432	1.406343360982254	0.18355126875950517	0.7484139107870431	1.7595685662634277	0.19356656482420867	0.5436322252354263	1.7592629936199782	0.13943989376107158	0.5987010018471988	1.7677512151822596	0.1899864365613402	0.7797551682202969	1.7966787152898314	0.2708374411274206	0.41632694297106454	0.5460853580804225	0.2872405683788553	0.313846310962409	0.32042007366763153	0.2634270954880148	0.2584585264736102	0.4515440517968077	0.41511671183856436	0.38856569912755323	0.6180434226961454	0.4404543924502472	0.4399341328653072	0.8529825442232174	0.34014721639579865	0.298895995962717	1.0216467414971553	0.30306432967832414	0.2522349400997153	1.0944469357150748	0.29042509082128093	0.2665618023392533	1.1095197584190752	0.28355153836180236	0.3245061642896876	1.1290128437800584	0.12129540221926037	0.4101069106211647	0.6238757281435248	0.1193730320411355	0.4315185778889661	0.86025707678173	0.20558729346458013	0.33887089516404384	1.04534901535583	0.309751111704086	0.2744341368206066	1.0788216690635415	0.31232887488429617	0.27800104370080553	1.1060577560568157	0.2556277854188182	0.3329227698954874	1.1460737163005479
76	1.2881355932203389	0.36291240310512934	0.5000959224554726	1.0090495436551241	0.38141824752099796	0.5981208656020838	1.3751336088336732	0.3736560166246033	0.6891275972770978	1.7285617134352211	0.34250264025837596	0.5684409255574827	1.7819755753822315	0.41495722472776964	0.584158231833899	1.784219388072378	0.35004074123534534	0.7973040658246995	1.7959718530287976	0.1802090770750667	0.5328006724942618	1.0256107747164904	0.18712318234659744	0.640111039270497	1.4061378639613165	0.18346937866151056	0.7495149389216205	1.7596094792461945	0.19358679725047162	0.5435499328676021	1.7591190088561222	0.1398147242795306	0.5973223070726807	1.7673627410020494	0.1899754146429057	0.7797846822540198	1.7966825582285701	0.27162885075989723	0.4196040799602099	0.5459901160015787	0.28716788389813747	0.3136030479902584	0.32050427441117396	0.26382115850840104	0.2586088048798488	0.4515663356882672	0.41516452375743473	0.38857067220100183	0.6177131623909426	0.4393489020270924	0.4360508778372877	0.8510668281264195	0.34071406068568466	0.29812513618937236	1.0200391565392033	0.30183904391862737	0.25045959851868643	1.0912664528100848	0.2911310800970617	0.2652966663110262	1.1061696270691668	0.2835196893236642	0.32959067313943435	1.1267321019079106	0.12121077599049923	0.41004406791751064	0.6238326102233116	0.1195576416997742	0.4315165695511427	0.8582272870626915	0.20495750600693824	0.3397927650403902	1.0429932964710649	0.3076545591279877	0.2714705148809214	1.0741640012766738	0.31227406064080354	0.27677173624428053	1.1025662423141558	0.2569029320430089	0.3355608987400179	1.1434410680368976
77	1.305084745762712	0.36461016621065706	0.5009403743337332	1.0089737733113489	0.3815619899724148	0.5977011951334892	1.3754746097635873	0.3736389267026598	0.6890971130685137	1.728511529637499	0.3425691135799462	0.568503380742608	1.7820140209082327	0.4150363654870615	0.5841603241325466	1.7842059985913314	0.35008133534007735	0.7970154238635265	1.79584858540363	0.18128025728007655	0.5326233243534739	1.0259214045170275	0.18805872221651684	0.6402746547936552	1.4063849058672737	0.18348425219779937	0.75055040217817	1.7596152067181445	0.1935835246972624	0.5435382319387864	1.7590524405846777	0.13975736386098506	0.5974007469813802	1.7674908683044337	0.18996929974128465	0.7797736276295193	1.7966599993379866	0.27193206214514604	0.42083465756675853	0.5459950408518304	0.2871539622600714	0.3134914026783858	0.3204793656475092	0.26481101507078586	0.2589284268274434	0.45160353921027707	0.41519562885193256	0.3885229036018171	0.6177004434212583	0.4398038650132471	0.43483722434097594	0.8512757092466992	0.3421722023227537	0.3016821457209722	1.0200266306623074	0.2985108836145579	0.24463425939927033	1.0878816532163673	0.28961977893618024	0.26165632658933785	1.104474321469103	0.28461023342695585	0.3318734054739094	1.1256921466202285	0.12116727681736991	0.41010677287436187	0.6237361018592384	0.11958861883736405	0.431218318587387	0.8571182092086076	0.2035793206810648	0.33941234897433986	1.0403885757177218	0.30360809179542836	0.2653819694256208	1.0710036924146802	0.30975444161644017	0.2739021972996271	1.100969013241492	0.25815462058954175	0.3378205099441834	1.1425249944952605
78	1.3220338983050848	0.36666288828718285	0.5025578767541801	1.008607765788319	0.38174729707353694	0.5972952293590047	1.3756088150773218	0.37364495616964266	0.6892772712945192	1.7285318920884112	0.34257666127739783	0.5686588205427263	1.782100066243093	0.41508384855987923	0.5842156046362682	1.7842100127443212	0.3501452140022314	0.7965159079978712	1.795650865633343	0.18156007271363692	0.5319668178466759	1.025833016694832	0.1894321536044546	0.6406129606695674	1.4069422820211885	0.1835200373472196	0.7510098948152432	1.7596028027225075	0.19356385547883076	0.5435746312518919	1.759045438037171	0.13961881371802967	0.5977841227478671	1.7676591852008343	0.18996146267628877	0.7797322636792805	1.7966225456071367	0.27192607115411616	0.4208070067320549	0.5460669488590849	0.28716998661130294	0.31341190363182925	0.32013389896806216	0.26611107271502543	0.25933415305980545	0.45160658531836684	0.4152545738701155	0.3883338937533166	0.6177567654833505	0.4418525136781656	0.4367473459888138	0.852807374591789	0.34321688977125764	0.3056891481623528	1.0209669430496202	0.29423184114756595	0.23841862410004416	1.084305790134509	0.2863305831450669	0.2584596746111112	1.1042531028175522	0.2866356383710656	0.3314847577835811	1.1254009140435066	0.12114702596121808	0.41014817257101205	0.623707269755809	0.11922003846874006	0.4310270314562434	0.8565555433868182	0.20106231054785123	0.3400163583905314	1.0382563368361433	0.29810420923592756	0.26129796858288973	1.0700140036013615	0.30556090910962874	0.27117309464992323	1.1012612297117907	0.2587887729345006	0.3407902336703112	1.1424997196574598
79	1.3389830508474576	0.36798486959653015	0.5057992597491708	1.0077630010050442	0.38195773279585316	0.5968716672701692	1.3754271256072474	0.37370282012297673	0.6896334100244863	1.7286141449839136	0.34248300230659934	0.568919091431367	1.7821363102239274	0.41507382032453216	0.5844066742929495	1.7842718317351962	0.35009222592570277	0.7964544436446012	1.7956255657781266	0.1814603303843859	0.5318147399548263	1.0257519771570585	0.19077638470913763	0.6406720737052461	1.4068974524935718	0.18354218055396446	0.7510303431058598	1.7595898081265502	0.19354811086182236	0.54362439346502	1.7590654525024845	0.13955290046308413	0.5980096407177516	1.7677608154107274	0.1899556945613606	0.779689529187761	1.7966249792118054	0.2718286388883492	0.42057033495106255	0.5460518832305999	0.2871880143890082	0.3131714957276855	0.3193501093417833	0.26709352463335284	0.2596404119107992	0.45154208900068016	0.41534468481349524	0.38807146102511536	0.6177941976802241	0.4449681276962682	0.4415636983218385	0.8543145794548341	0.3442807712413509	0.31003037563913866	1.0223327643291182	0.2902876704300082	0.23814379571946054	1.0801081165509139	0.2820488006275114	0.26071984587003	1.104510128236738	0.2880859084521365	0.33064594937806585	1.1252165431083543	0.12113608926920685	0.4100524250963079	0.6240430484291563	0.11779132321040713	0.4319055272608511	0.8561389433255432	0.19707915258919595	0.3440606018901783	1.0373857915133047	0.29218389007245793	0.2638956201553843	1.0701038618247007	0.30038532038274135	0.2719593216771199	1.1025386658237721	0.258902145142981	0.34566224401735274	1.1430661118526597
80	1.3559322033898304	0.36800217465990065	0.5097560333213247	1.0070543390985387	0.38216302102711464	0.596559604631171	1.3752163251548262	0.3738372861877818	0.6897190291154116	1.728639596238444	0.3422733248324915	0.5694795580104325	1.78200054553871	0.4149916276701008	0.5848268972362258	1.784428940632012	0.34957678111002505	0.798313527470565	1.796333153418535	0.18085533295689493	0.5333436908468203	1.0260588055140436	0.19176322899743797	0.640080200061646	1.4055908166231783	0.18355124994487343	0.7509391239832636	1.75958157754186	0.19355049789499243	0.5436519791829225	1.7590922042890313	0.13957771116663514	0.5980616964282666	1.7678498039797654	0.18994845522629838	0.7797168317708985	1.7966826337230293	0.27171940310238707	0.4205699813103708	0.5456586926868572	0.2871904311090021	0.312639425607781	0.31842989114112746	0.2674757839138059	0.2597727627222701	0.45142310896629156	0.4153361308737542	0.3882057899023683	0.6178345537968759	0.44791624453729706	0.4475405237173133	0.8554233740938008	0.34664971078441126	0.3170860853503976	1.023821749267944	0.2878863108446757	0.24667411857955499	1.0756106306317912	0.27782602099531073	0.27063924740776835	1.1042535071604558	0.2880573130267057	0.3312520036871993	1.1249966669464122	0.121139033723132	0.40982719755860636	0.6249711572720036	0.11518939220178187	0.4348293086602476	0.8559764708497376	0.19235837919673004	0.3516954183557243	1.0377180092577096	0.2868854980022796	0.2750358452423434	1.0700921269427994	0.2951127902361368	0.2796628432468182	1.1041784652754636	0.2585040661357479	0.3520013472888055	1.1443132087257728
